<svg xmlns="http://www.w3.org/2000/svg" viewBox="0 0 64 64">
  <defs>
    <linearGradient id="gold" x1="0" y1="0" x2="0" y2="1">
      <stop offset="0" stop-color="#C9A063"/>
      <stop offset="1" stop-color="#9C6644"/>
    </linearGradient>
  </defs>
  <rect width="64" height="64" rx="14" fill="#F5EFE6"/>
  <g fill="url(#gold)">
    <path d="M32 17c4.6 6.2 4.6 17.2 0 23.4-4.6-6.2-4.6-17.2 0-23.4z"/>
    <path d="M32 41.5c-5.2-1.2-9.8-5.6-11.6-11.4 6 .4 10.4 4.8 11.6 11.4z"/>
    <path d="M32 41.5c5.2-1.2 9.8-5.6 11.6-11.4-6 .4-10.4 4.8-11.6 11.4z"/>
    <path d="M32 43c-7-.4-13.6-4.4-16.8-10.8 7-1 13.4 3.4 16.8 10.8z"/>
    <path d="M32 43c7-.4 13.6-4.4 16.8-10.8-7-1-13.4 3.4-16.8 10.8z"/>
    <path d="M16 41c4 4 10 6.4 16 6.4S44 45 48 41c-3.4 4.8-9.2 7.8-16 7.8S19.4 45.8 16 41z"/>
  </g>
</svg>
